<svg width="1632" height="1632" viewBox="0 0 1632 1632" xmlns="http://www.w3.org/2000/svg" xmlns:xlink="http://www.w3.org/1999/xlink">
    <g id="Gruppo">
        <path id="Percorso" fill="#000000" stroke="none" d="M 12.666667 280.533325 C 8 282.533325 1.6 289.466675 0.666667 293.733276 C 0.266667 295.333374 0.133333 510.93335 0.266667 772.93335 L 0.666667 1249.199951 L 3.466667 1252.93335 C 5.066667 1254.93335 8.266666 1257.866699 10.8 1259.333374 C 15.2 1262 17.733334 1262 157.333328 1262 L 299.333344 1262 L 299.333344 1253.333374 L 299.333344 1244.666626 L 158.933334 1244.266602 L 18.666666 1244 L 18.933332 770.266663 L 19.333334 296.666626 L 816 296.666626 L 1612.666626 296.666626 L 1613.06665 770.266663 L 1613.333374 1244 L 1466.400024 1244.266602 L 1319.333374 1244.666626 L 1318.93335 1253.733398 L 1318.533325 1262.666626 L 1467.599976 1262.400024 C 1614 1262 1616.800049 1262 1621.199951 1259.333374 C 1623.733276 1257.866699 1626.93335 1254.93335 1628.533325 1252.93335 L 1631.333374 1249.199951 L 1631.733276 771.466675 L 1632 293.733276 L 1629.06665 289.333374 C 1627.333374 286.93335 1624.266724 283.599976 1622.266724 282.133301 L 1618.533325 279.333374 L 817.599976 279.06665 C 153.733337 278.800049 16 279.06665 12.666667 280.533325 Z"/>
        <path id="path1" fill="#000000" stroke="none" d="M 745.333313 437.466675 C 664.533325 440.400024 595.599976 446.93335 548 456.133301 C 487.200012 467.866699 447.733337 484.93335 431.600006 506.266724 L 426 513.866699 L 426.266663 536.533325 C 427.333344 621.333313 440.533325 726.533325 459.333344 798 C 488.933319 911.06665 536.799988 988 606 1033.733398 C 629.333313 1049.199951 666.799988 1065.199951 696.666687 1072.533325 C 711.333313 1076.133301 732.400024 1079.733398 756.533325 1082.800049 C 778.666687 1085.466675 782 1085.599976 803.733337 1084.133301 C 849.06665 1081.06665 879.466675 1075.199951 916.93335 1062.133301 C 953.200012 1049.466675 990.666687 1029.199951 1017.733337 1007.599976 C 1026.133301 1000.799988 1027.466675 1000.133362 1039.06665 998.133362 C 1123.733276 982.799988 1232.533325 928.400024 1307.199951 863.866638 C 1314.666626 857.599976 1328.533325 844.266663 1338 834.533325 C 1375.733276 795.866638 1396.533325 762.266663 1408.266724 720.666687 C 1410.93335 711.466675 1411.333374 706.799988 1411.333374 686 C 1411.333374 665.333313 1410.93335 660.533325 1408.400024 651.333313 C 1399.599976 619.06665 1380.93335 590 1356.533325 570.666626 C 1340 557.466675 1327.06665 552.666626 1304.666626 551.199951 C 1278.266724 549.466675 1248 555.199951 1204.266724 570.133301 C 1192.266724 574.266724 1182.133301 577.199951 1181.733276 576.800049 C 1181.199951 576.400024 1180.400024 565.333374 1179.866699 552.266724 C 1177.866699 506.666626 1177.733276 505.866699 1166.533325 494.533325 C 1139.199951 466.800049 1058.666626 448.133301 934.666687 440.666626 C 862.93335 436.400024 804.133362 435.333374 745.333313 437.466675 Z M 908 487.333374 C 1017.733337 494 1091.06665 509.466675 1098.533325 527.866699 C 1100 531.333374 1100 532.400024 1098.133301 535.199951 C 1094 541.733276 1078 549.06665 1055.866699 554.666626 C 1041.599976 558.400024 1012.266663 563.733276 1001.200012 564.800049 L 992.400024 565.733276 L 991.333313 556.533325 C 990.133362 545.466675 988 540.666626 982.666687 538 C 977.466675 535.333374 975.866638 535.333374 949.200012 539.866699 C 917.733337 545.199951 900.799988 546.533325 843.733337 547.466675 C 812.666687 548.133301 793.599976 548.93335 791.866638 549.866699 C 786.533325 552.533325 784 557.599976 783.06665 567.06665 L 782.266663 576 L 763.466675 576 C 722.666687 576 651.466675 571.06665 608.666687 565.199951 C 545.06665 556.533325 508 543.866699 508 530.800049 C 508 508.800049 602.133362 490.400024 740 485.333374 C 780.133362 483.866699 867.599976 484.93335 908 487.333374 Z M 957.333313 706 C 957.333313 778.93335 957.06665 838.666687 956.799988 838.666687 C 956.400024 838.666687 945.599976 822.93335 932.533325 803.599976 C 919.599976 784.400024 906.533325 765.466675 903.599976 761.599976 C 893.599976 748 883.333313 747.599976 873.733337 760.400024 C 870.799988 764.133362 857.733337 783.200012 844.533325 802.666687 L 820.666687 838 L 819.866638 828.666687 C 819.333313 823.466675 818.533325 765.733337 818 700.266663 L 817.06665 581.333374 L 838.133362 581.333374 C 867.06665 581.333374 906.400024 579.06665 928 576.133301 C 937.866638 574.800049 948.533325 573.599976 951.733337 573.466675 L 957.333313 573.333374 L 957.333313 706 Z M 1290.800049 633.333313 C 1325.733276 640 1342.266724 677.599976 1330.400024 723.333313 C 1313.199951 789.333313 1247.599976 847.733337 1160.666626 874.533325 C 1146.666626 878.799988 1117.199951 885.733337 1116.400024 884.799988 C 1116.133301 884.533325 1119.466675 876.266663 1123.733276 866.533325 C 1146.266724 815.599976 1160.666626 765.06665 1170 704.666687 C 1172.266724 690.400024 1174.400024 680.799988 1175.866699 678.666687 C 1179.06665 674 1206 656.133362 1222 648.133362 C 1248 634.93335 1272.133301 629.866638 1290.800049 633.333313 Z"/>
    </g>
</svg>
