<svg width="152" height="100" viewBox="0 0 152 100" xmlns="http://www.w3.org/2000/svg" xmlns:xlink="http://www.w3.org/1999/xlink">
    <path id="Percorso" fill="#000000" stroke="none" d="M 1.947164 0 C 0.874237 0 0 0.862106 0 1.906761 L 0 91.463531 C 0 92.47776 0.874237 93.349998 1.927295 93.349998 L 27.856373 93.349998 L 27.856373 91.676514 L 1.947164 91.676514 C 1.798147 91.676514 1.698802 91.575096 1.698802 91.443245 L 1.698802 1.896622 C 1.698802 1.754623 1.798147 1.673485 1.93723 1.673485 L 149.762772 1.673485 C 149.911789 1.673485 150.001205 1.754623 150.001205 1.906761 L 150.001205 91.463531 C 150.001205 91.595375 149.901855 91.686661 149.762772 91.686661 L 122.542206 91.686661 L 122.542206 93.349998 L 149.762772 93.349998 C 150.825775 93.349998 151.699997 92.47776 151.699997 91.443245 L 151.699997 1.896622 C 151.699997 0.862106 150.825775 0 149.772705 0 L 1.947164 0 Z"/>
    <path id="path1" fill="#000000" stroke="none" d="M 72.43 74.759995 C 69.209999 74.409996 67.949997 74.220001 66 73.790001 C 61.5 72.790001 57.77 71.040001 54.52 68.389999 C 46.279999 61.690002 41.52 48.790001 40.16 29.590004 C 39.84 24.93 39.759998 21.610001 39.93 21.25 C 40.18 20.75 40.860001 19.980003 41.41 19.550003 C 45.470001 16.309998 55.41 14.529999 71.709999 14.110001 C 79.150002 13.93 88.610001 14.330002 94.75 15.089996 C 100.620003 15.82 104.370003 16.730003 107.150002 18.090004 C 108.190002 18.610001 108.449997 18.790001 109.099998 19.43 C 110.220001 20.529999 110.239998 20.629997 110.370003 24.309998 C 110.419998 25.959999 110.470001 27.309998 110.489998 27.330002 C 110.489998 27.330002 110.739998 27.260002 111.029999 27.150002 C 112.370003 26.629997 114.769997 25.849998 116.089996 25.519997 C 118.470001 24.919998 119.260002 24.800003 121.269997 24.800003 C 123.309998 24.800003 124.110001 24.949997 125.419998 25.599998 C 127.349998 26.550003 129.720001 29.160004 130.839996 31.559998 C 131.809998 33.699997 132.139999 35.120003 132.119995 37.41 C 132.119995 39.310001 131.960007 40.210003 131.369995 41.990002 C 129.070007 48.890003 121.300003 56.330002 110.769997 61.790001 C 106.089996 64.190002 100.940002 66.040009 97.150002 66.649994 L 96.099998 66.809998 L 95.279999 67.479996 C 91.199997 70.779999 85.400002 73.299995 79.720001 74.209999 C 77.089996 74.629997 73.720001 74.869995 72.419998 74.739998 Z M 106.459999 55.66 C 109.860001 54.860001 113.360001 53.41 115.910004 51.73 C 120.089996 48.98 122.910004 45.66 124.209999 41.890003 C 124.669998 40.550003 124.849998 39.540001 124.849998 38.25 C 124.830002 36.25 124.349998 34.849998 123.269997 33.800003 C 122.199997 32.739998 120.93 32.300003 119.190002 32.419998 C 116.940002 32.550003 114.589996 33.489998 111.739998 35.400002 C 109.690002 36.760002 109.870003 36.5 109.599998 38.420002 C 108.739998 44.580002 107.150002 50.120003 104.900002 54.880001 L 104.349998 56.080002 L 104.809998 56.010002 C 105.07 55.970001 105.809998 55.810001 106.449997 55.66 Z M 79.32 47.890003 C 80.699997 45.82 81.970001 43.990002 82.139999 43.860001 C 82.720001 43.360001 83.580002 43.400002 84.139999 43.920002 C 84.300003 44.09 85.589996 45.940002 86.989998 48.040001 L 89.540001 51.860001 L 89.559998 39.360001 L 89.559998 26.809998 C 89.540001 26.809998 88.82 26.889999 87.940002 27.010002 C 85.269997 27.410004 83.209999 27.559998 79.779999 27.610001 L 76.480003 27.669998 L 76.510002 34.769997 C 76.550003 44.27 76.639999 51.830002 76.730003 51.73 C 76.769997 51.690002 77.93 49.960003 79.330002 47.880001 Z M 73.260002 26.32 C 73.300003 25.57 73.330002 25.419998 73.559998 25.120003 C 74.059998 24.459999 74.029999 24.470001 78.529999 24.459999 C 84.050003 24.459999 85.910004 24.32 89.529999 23.639999 C 91.400002 23.290001 91.699997 23.300003 92.160004 23.68 C 92.629997 24.080002 92.760002 24.459999 92.760002 25.360001 C 92.760002 26.360001 92.559998 26.300003 94.739998 25.959999 C 99.080002 25.260002 101.580002 24.5 102.559998 23.559998 C 103.010002 23.110001 103.029999 22.760002 102.620003 22.300003 C 102.269997 21.900002 101.720001 21.580002 100.839996 21.25 C 96.379997 19.57 86.610001 18.550003 75.089996 18.550003 C 63.610001 18.57 53.650002 19.610001 49.439999 21.25 C 48.599998 21.580002 47.790001 22.150002 47.57 22.529999 C 47.02 23.529999 48.77 24.529999 52.509998 25.370003 C 57.009998 26.370003 64.610001 27.07 71.589996 27.150002 L 73.25 27.150002 L 73.279999 26.309998 Z"/>
</svg>
